<?xml version="1.0" encoding="UTF-8"?>
<svg version="1.1" xmlns="http://www.w3.org/2000/svg" width="500" height="500">
<path d="M0 0 C2.46654253 -0.00433741 4.93123763 -0.04064863 7.39746094 -0.07861328 C31.03525356 -0.24584684 56.00016915 6.81643727 74.99902344 21.37060547 C74.99902344 22.03060547 74.99902344 22.69060547 74.99902344 23.37060547 C76.0934375 23.74378906 76.0934375 23.74378906 77.20996094 24.12451172 C82.31132497 26.40369257 85.98964257 30.55541114 89.99902344 34.37060547 C90.90394531 35.21107422 91.80886719 36.05154297 92.74121094 36.91748047 C103.82389031 47.52922445 111.71262358 59.41580901 117.99902344 73.37060547 C118.38703125 74.23169922 118.77503906 75.09279297 119.17480469 75.97998047 C125.88543152 91.8367512 128.41620809 107.7975372 128.37402344 124.87060547 C128.37420471 125.99695404 128.37420471 125.99695404 128.37438965 127.14605713 C128.347252 138.99290236 127.40772299 149.965026 123.99902344 161.37060547 C123.69867188 162.46244141 123.39832031 163.55427734 123.08886719 164.67919922 C119.7157727 175.90824536 114.00599751 187.95566198 106.99902344 197.37060547 C106.33902344 197.37060547 105.67902344 197.37060547 104.99902344 197.37060547 C104.75023437 198.10021484 104.50144531 198.82982422 104.24511719 199.58154297 C101.96593634 204.682907 97.81421777 208.3612246 93.99902344 212.37060547 C93.15855469 213.27552734 92.31808594 214.18044922 91.45214844 215.11279297 C81.44021745 225.56904042 70.24864858 233.47991766 56.99902344 239.37060547 C55.53529297 240.02996094 55.53529297 240.02996094 54.04199219 240.70263672 C37.32253213 247.95577077 21.53733877 250.78749688 3.43652344 250.74560547 C2.63666016 250.74572632 1.83679688 250.74584717 1.01269531 250.74597168 C-10.79613075 250.72052162 -21.69474464 250.0292513 -33.00097656 246.37060547 C-34.04511719 246.08185547 -35.08925781 245.79310547 -36.16503906 245.49560547 C-47.58854573 242.11979347 -59.28065774 236.2558313 -69.00097656 229.37060547 C-69.00097656 228.71060547 -69.00097656 228.05060547 -69.00097656 227.37060547 C-69.73058594 227.12181641 -70.46019531 226.87302734 -71.21191406 226.61669922 C-76.30993376 224.33901255 -80.00025574 220.19050275 -84.00097656 216.37060547 C-84.48501953 215.90847656 -84.9690625 215.44634766 -85.46777344 214.97021484 C-90.52938204 210.10814403 -95.35296348 205.43648769 -99.00097656 199.37060547 C-99.00097656 198.71060547 -99.00097656 198.05060547 -99.00097656 197.37060547 C-99.66097656 197.37060547 -100.32097656 197.37060547 -101.00097656 197.37060547 C-102.52777336 195.19033964 -103.90450021 193.03492211 -105.25097656 190.74560547 C-105.6521167 190.06699463 -106.05325684 189.38838379 -106.46655273 188.68920898 C-112.71848601 177.89087083 -117.13408281 166.52884124 -120.00097656 154.37060547 C-120.17902832 153.62536621 -120.35708008 152.88012695 -120.54052734 152.11230469 C-122.38642755 143.4172734 -122.39853399 134.71539436 -122.37597656 125.87060547 C-122.37543274 125.07102417 -122.37488892 124.27144287 -122.37432861 123.44763184 C-122.33648324 111.3570939 -121.74478305 99.95775827 -118.00097656 88.37060547 C-117.68749268 87.35377686 -117.68749268 87.35377686 -117.36767578 86.31640625 C-109.86136159 62.51548643 -92.94728568 36.12933252 -71.00097656 23.37060547 C-70.34097656 23.37060547 -69.68097656 23.37060547 -69.00097656 23.37060547 C-69.00097656 22.71060547 -69.00097656 22.05060547 -69.00097656 21.37060547 C-66.00097656 19.37060547 -66.00097656 19.37060547 -63.00097656 19.37060547 C-63.00097656 18.71060547 -63.00097656 18.05060547 -63.00097656 17.37060547 C-59.01323134 15.34541549 -55.01156667 13.35016161 -51.00097656 11.37060547 C-50.0921875 10.91814453 -49.18339844 10.46568359 -48.24707031 9.99951172 C-41.06993171 6.56603707 -33.72270828 4.26181035 -26.00097656 2.37060547 C-25.33791504 2.19110352 -24.67485352 2.01160156 -23.99169922 1.82666016 C-16.07334264 -0.07920048 -8.09753729 -0.00158589 0 0 Z M-35.00097656 32.37060547 C-35.00097656 33.03060547 -35.00097656 33.69060547 -35.00097656 34.37060547 C-35.66097656 34.37060547 -36.32097656 34.37060547 -37.00097656 34.37060547 C-46.93718044 47.20250305 -48.43529268 61.71478896 -47.00097656 77.37060547 C-44.80671938 90.12472536 -36.35246596 100.87543991 -26.00097656 108.37060547 C-25.34097656 108.37060547 -24.68097656 108.37060547 -24.00097656 108.37060547 C-24.00097656 109.03060547 -24.00097656 109.69060547 -24.00097656 110.37060547 C-22.8177708 111.00369738 -21.62909809 111.62657265 -20.43847656 112.24560547 C-19.7771875 112.59365234 -19.11589844 112.94169922 -18.43457031 113.30029297 C-11.0214667 116.56063067 -3.42856509 117.12338604 4.56152344 117.93310547 C6.95881055 118.18295634 9.35595189 118.43421064 11.75292969 118.68701172 C12.80810791 118.794729 13.86328613 118.90244629 14.95043945 119.01342773 C17.98815159 119.3693317 20.98685443 119.84279252 23.99902344 120.37060547 C21.35890836 113.24229475 18.84206018 108.69087569 11.75683594 105.29638672 C8.43208883 104.18028889 5.29943686 103.84981844 1.81152344 103.49560547 C-8.96302953 102.21057907 -18.54365788 98.81791394 -25.72363281 90.33544922 C-32.59492257 80.76291533 -33.97437638 70.98473203 -33.00097656 59.37060547 C-31.79726797 52.51226584 -29.21175055 47.83323118 -25.00097656 42.37060547 C-25.00097656 41.71060547 -25.00097656 41.05060547 -25.00097656 40.37060547 C-24.34097656 40.37060547 -23.68097656 40.37060547 -23.00097656 40.37060547 C-23.00097656 39.71060547 -23.00097656 39.05060547 -23.00097656 38.37060547 C-22.44539063 38.09345703 -21.88980469 37.81630859 -21.31738281 37.53076172 C-19.71895546 36.7302003 -18.12272756 35.92523749 -16.52832031 35.11669922 C-15.67367187 34.68486328 -14.81902344 34.25302734 -13.93847656 33.80810547 C-13.08125 33.37369141 -12.22402344 32.93927734 -11.34082031 32.49169922 C1.43958052 26.36820166 20.07951174 30.05466783 32.99902344 34.37060547 C34.124375 34.73283203 35.24972656 35.09505859 36.40917969 35.46826172 C57.22612721 42.78768904 76.79800097 58.63785838 86.99902344 78.37060547 C88.49883056 81.62971923 89.89247861 84.92452749 91.24902344 88.24560547 C91.57854004 89.04732178 91.90805664 89.84903809 92.24755859 90.67504883 C96.64781589 101.91202302 98.52602055 112.75801651 98.37402344 124.80810547 C98.35662109 126.59003296 98.35662109 126.59003296 98.33886719 128.40795898 C98.03717791 144.56497237 93.85011833 160.08684896 85.92358398 174.29882812 C84.7870991 176.84549058 84.58226915 179.01458912 84.36621094 181.79248047 C84.28242188 182.81728516 84.19863281 183.84208984 84.11230469 184.89794922 C84.03367187 185.96142578 83.95503906 187.02490234 83.87402344 188.12060547 C83.74447266 189.73902344 83.74447266 189.73902344 83.61230469 191.39013672 C83.40047294 194.04980203 83.19632942 196.70982966 82.99902344 199.37060547 C87.18377288 195.3570354 87.18377288 195.3570354 89.99902344 190.37060547 C90.65902344 190.37060547 91.31902344 190.37060547 91.99902344 190.37060547 C108.51193973 168.77977361 115.60680815 139.62797232 112.53417969 112.88623047 C110.03826872 94.52856684 103.08569422 75.34451144 91.99902344 60.37060547 C91.33902344 60.37060547 90.67902344 60.37060547 89.99902344 60.37060547 C89.62970703 59.52755859 89.62970703 59.52755859 89.25292969 58.66748047 C84.98276073 50.84548874 77.05794124 43.7132959 69.99902344 38.37060547 C69.33902344 38.37060547 68.67902344 38.37060547 67.99902344 38.37060547 C67.99902344 37.71060547 67.99902344 37.05060547 67.99902344 36.37060547 C39.75342075 16.02838286 -8.37096201 2.51271037 -35.00097656 32.37060547 Z M-14.77441406 53.71044922 C-19.06895845 59.52312873 -18.72928491 66.46861354 -18.00097656 73.37060547 C-16.95618488 76.16428758 -15.79819228 77.95559685 -14.00097656 80.37060547 C-13.34097656 80.37060547 -12.68097656 80.37060547 -12.00097656 80.37060547 C-12.00097656 81.03060547 -12.00097656 81.69060547 -12.00097656 82.37060547 C-6.3419246 86.55698017 -0.89056727 87.92050494 5.93652344 88.87060547 C13.06424767 89.89020432 18.9180647 91.29718014 24.99902344 95.37060547 C25.6396875 95.78955078 26.28035156 96.20849609 26.94042969 96.64013672 C34.39138569 102.22433053 37.7929904 110.35781138 39.31152344 119.30810547 C40.12554381 123.81165863 40.12554381 123.81165863 43.07324219 127.08154297 C46.51449032 128.64423536 49.21207738 129.37060547 52.99902344 129.37060547 C53.7058845 114.82104863 51.11678479 104.16081411 41.99902344 92.37060547 C30.78560241 80.21954344 18.49328253 75.64198032 2.32714844 74.12841797 C-1.00097656 73.37060547 -1.00097656 73.37060547 -2.93457031 71.49169922 C-4.37907256 68.61856838 -4.33861993 66.54445316 -4.00097656 63.37060547 C-2.00097656 60.37060547 -2.00097656 60.37060547 0.99902344 59.37060547 C19.90695555 59.25990329 36.55587082 65.04894794 50.43652344 78.12060547 C60.72530305 89.1955709 68.65384947 103.9970879 68.99902344 119.37060547 C69.02609375 120.29228516 69.05316406 121.21396484 69.08105469 122.16357422 C69.17010598 128.42145161 68.76025271 134.47663059 67.92480469 140.67919922 C68.01734129 144.03486875 68.97892402 145.72672238 70.99902344 148.37060547 C71.65902344 148.37060547 72.31902344 148.37060547 72.99902344 148.37060547 C73.28777344 149.15435547 73.57652344 149.93810547 73.87402344 150.74560547 C74.84814598 153.46732179 74.84814598 153.46732179 76.99902344 155.37060547 C77.63826054 154.08592508 78.25936325 152.79222439 78.87402344 151.49560547 C79.22207031 150.77630859 79.57011719 150.05701172 79.92871094 149.31591797 C86.2284236 131.98021232 84.599069 110.8705652 77.19824219 94.18310547 C73.63391909 86.57698446 69.60666652 78.67541499 63.99902344 72.37060547 C63.33902344 72.37060547 62.67902344 72.37060547 61.99902344 72.37060547 C61.99902344 71.71060547 61.99902344 71.05060547 61.99902344 70.37060547 C61.33902344 70.37060547 60.67902344 70.37060547 59.99902344 70.37060547 C59.99902344 69.71060547 59.99902344 69.05060547 59.99902344 68.37060547 C59.33902344 68.37060547 58.67902344 68.37060547 57.99902344 68.37060547 C57.99902344 67.71060547 57.99902344 67.05060547 57.99902344 66.37060547 C57.33902344 66.37060547 56.67902344 66.37060547 55.99902344 66.37060547 C55.99902344 65.71060547 55.99902344 65.05060547 55.99902344 64.37060547 C53.76130901 62.66438597 51.53671484 61.09601355 49.18652344 59.55810547 C48.49872803 59.10741699 47.81093262 58.65672852 47.10229492 58.19238281 C29.67913295 46.97481401 2.05680942 36.83221115 -14.77441406 53.71044922 Z M-78.00097656 51.37060547 C-79.05599253 52.4636137 -80.07079394 53.59568943 -81.06347656 54.74560547 C-81.61132812 55.37208984 -82.15917969 55.99857422 -82.72363281 56.64404297 C-84.19922622 58.28062558 -84.19922622 58.28062558 -84.00097656 60.37060547 C-84.66097656 60.37060547 -85.32097656 60.37060547 -86.00097656 60.37060547 C-102.03141293 81.56026274 -109.92001894 111.42252613 -106.50097656 137.60107422 C-103.69263554 156.16886411 -97.31744317 175.16519833 -86.00097656 190.37060547 C-85.34097656 190.37060547 -84.68097656 190.37060547 -84.00097656 190.37060547 C-83.73414063 190.95326172 -83.46730469 191.53591797 -83.19238281 192.13623047 C-81.97710905 194.41536684 -80.63028484 196.17523379 -78.93847656 198.12060547 C-78.14763672 199.04099609 -78.14763672 199.04099609 -77.34082031 199.97998047 C-76.89867187 200.43888672 -76.45652344 200.89779297 -76.00097656 201.37060547 C-75.67097656 201.37060547 -75.34097656 201.37060547 -75.00097656 201.37060547 C-74.91009766 200.41347656 -74.91009766 200.41347656 -74.81738281 199.43701172 C-74.73359375 198.61072266 -74.64980469 197.78443359 -74.56347656 196.93310547 C-74.48226562 196.10939453 -74.40105469 195.28568359 -74.31738281 194.43701172 C-74.00097656 192.37060547 -74.00097656 192.37060547 -73.00097656 191.37060547 C-72.50597656 195.82560547 -72.50597656 195.82560547 -72.00097656 200.37060547 C-70.35097656 200.70060547 -68.70097656 201.03060547 -67.00097656 201.37060547 C-67.00097656 202.03060547 -67.00097656 202.69060547 -67.00097656 203.37060547 C-68.65097656 203.70060547 -70.30097656 204.03060547 -72.00097656 204.37060547 C-54.08556542 222.57291821 -30.6622105 233.78694075 -5.00097656 235.37060547 C-3.32455078 235.47501953 -3.32455078 235.47501953 -1.61425781 235.58154297 C14.14073854 236.06631209 27.84683731 230.72260554 39.45214844 220.10498047 C41.22089505 218.50917018 41.22089505 218.50917018 40.99902344 216.37060547 C41.65902344 216.37060547 42.31902344 216.37060547 42.99902344 216.37060547 C44.3004589 214.18843112 45.5900977 212.00055305 46.87402344 209.80810547 C47.23882812 209.19902344 47.60363281 208.58994141 47.97949219 207.96240234 C54.65690418 196.48939447 54.51731564 182.51879644 52.38183594 169.65185547 C48.62385392 157.01439382 38.74328481 145.92418971 27.72949219 138.92919922 C21.87081743 135.89344232 16.03802602 134.19921911 9.49902344 133.55419922 C8.28214844 133.42980469 7.06527344 133.30541016 5.81152344 133.17724609 C4.55339844 133.05542969 3.29527344 132.93361328 1.99902344 132.80810547 C-0.50113116 132.55834617 -3.00113739 132.30709608 -5.50097656 132.05419922 C-6.60441406 131.94648193 -7.70785156 131.83876465 -8.84472656 131.7277832 C-11.92110638 131.379644 -14.95250847 130.90804718 -18.00097656 130.37060547 C-15.36086148 137.49891618 -12.84401331 142.05033525 -5.75878906 145.44482422 C-2.43404195 146.56092204 0.69861001 146.8913925 4.18652344 147.24560547 C14.93265535 148.52724223 24.61800893 151.90362659 31.72167969 160.44091797 C38.0984467 169.43419626 40.84226374 179.29672782 39.37402344 190.24560547 C38.26579576 196.24217989 35.97872772 201.09882097 32.99902344 206.37060547 C32.32508086 207.70027596 31.65594024 209.0324416 30.99902344 210.37060547 C30.33902344 210.37060547 29.67902344 210.37060547 28.99902344 210.37060547 C28.99902344 211.03060547 28.99902344 211.69060547 28.99902344 212.37060547 C28.4434375 212.64775391 27.88785156 212.92490234 27.31542969 213.21044922 C25.71700233 214.01101064 24.12077443 214.81597345 22.52636719 215.62451172 C21.67171875 216.05634766 20.81707031 216.48818359 19.93652344 216.93310547 C18.65068359 217.58472656 18.65068359 217.58472656 17.33886719 218.24951172 C4.54939964 224.37735343 -14.07187336 220.6755706 -27.00097656 216.37060547 C-28.63679688 215.86207031 -28.63679688 215.86207031 -30.30566406 215.34326172 C-49.58585901 208.72011406 -65.97654086 195.3898956 -77.00097656 178.37060547 C-77.51917969 177.63068359 -78.03738281 176.89076172 -78.57128906 176.12841797 C-82.14212183 170.72543017 -84.48270119 164.96769623 -86.75097656 158.93310547 C-87.04496338 158.15837891 -87.3389502 157.38365234 -87.6418457 156.58544922 C-96.48246638 132.10294309 -93.54443902 105.14118523 -82.68457031 81.95654297 C-81.59833843 79.64294466 -80.48182134 77.34321184 -79.32910156 75.06201172 C-77.61542124 70.29898847 -77.44008809 65.95777427 -77.31347656 60.93310547 C-77.27931641 60.01078125 -77.24515625 59.08845703 -77.20996094 58.13818359 C-77.12814662 55.88244596 -77.05878534 53.62706428 -77.00097656 51.37060547 C-77.33097656 51.37060547 -77.66097656 51.37060547 -78.00097656 51.37060547 Z M-72.00097656 96.37060547 C-79.40671234 114.54832056 -79.71786358 136.23485422 -72.13916016 154.44091797 C-68.43836444 162.78550987 -64.09762287 171.51599773 -58.00097656 178.37060547 C-57.34097656 178.37060547 -56.68097656 178.37060547 -56.00097656 178.37060547 C-56.00097656 179.03060547 -56.00097656 179.69060547 -56.00097656 180.37060547 C-55.34097656 180.37060547 -54.68097656 180.37060547 -54.00097656 180.37060547 C-54.00097656 181.03060547 -54.00097656 181.69060547 -54.00097656 182.37060547 C-53.34097656 182.37060547 -52.68097656 182.37060547 -52.00097656 182.37060547 C-52.00097656 183.03060547 -52.00097656 183.69060547 -52.00097656 184.37060547 C-51.34097656 184.37060547 -50.68097656 184.37060547 -50.00097656 184.37060547 C-50.00097656 185.03060547 -50.00097656 185.69060547 -50.00097656 186.37060547 C-47.76326214 188.07682497 -45.53866797 189.64519739 -43.18847656 191.18310547 C-42.50068115 191.63379395 -41.81288574 192.08448242 -41.10424805 192.54882812 C-26.29187012 202.08549368 -9.69291047 207.30135104 7.99902344 205.37060547 C13.70690305 203.82652861 18.49129961 200.11832084 21.99902344 195.37060547 C24.70049055 189.85665204 24.66708014 184.39088391 23.99902344 178.37060547 C22.94692643 175.37441617 21.67578645 173.09534536 19.99902344 170.37060547 C19.33902344 170.37060547 18.67902344 170.37060547 17.99902344 170.37060547 C17.99902344 169.71060547 17.99902344 169.05060547 17.99902344 168.37060547 C13.00592248 164.12977635 8.10096557 163.39443193 1.74902344 162.43310547 C-5.85110837 161.13679688 -12.49341493 159.72784239 -19.00097656 155.37060547 C-20.36222656 154.50435547 -20.36222656 154.50435547 -21.75097656 153.62060547 C-27.81070325 147.56087878 -32.30267382 139.82990583 -33.23535156 131.20263672 C-33.53125122 128.88330559 -33.80161721 127.39150401 -35.00097656 125.37060547 C-38.310932 123.26937027 -42.95076644 120.37060547 -47.00097656 120.37060547 C-47.63712805 134.45429254 -45.82451682 145.74874244 -37.00097656 157.37060547 C-36.34097656 157.37060547 -35.68097656 157.37060547 -35.00097656 157.37060547 C-34.76636719 157.94810547 -34.53175781 158.52560547 -34.29003906 159.12060547 C-29.86532606 166.8437409 -19.97470343 171.77041483 -11.74707031 174.41748047 C-6.64936879 175.71449733 -1.55703364 176.12332522 3.67089844 176.61279297 C6.99902344 177.37060547 6.99902344 177.37060547 8.93261719 179.24951172 C10.37711943 182.12264256 10.33666681 184.19675778 9.99902344 187.37060547 C7.99902344 190.37060547 7.99902344 190.37060547 4.99902344 191.37060547 C-13.03346222 191.47618208 -28.43336158 186.49485716 -42.00097656 174.37060547 C-42.66097656 174.37060547 -43.32097656 174.37060547 -44.00097656 174.37060547 C-44.00097656 173.71060547 -44.00097656 173.05060547 -44.00097656 172.37060547 C-44.66097656 172.37060547 -45.32097656 172.37060547 -46.00097656 172.37060547 C-46.26265625 171.80470703 -46.52433594 171.23880859 -46.79394531 170.65576172 C-48.10325225 168.17697674 -49.64201898 166.0577169 -51.31347656 163.80810547 C-61.32861991 149.66171549 -64.80609112 133.15072107 -62.56347656 116.03076172 C-61.57358835 109.88717202 -61.57358835 109.88717202 -63.20019531 104.09716797 C-64.70800512 102.36665502 -66.28588296 100.89030866 -68.00097656 99.37060547 C-68.66097656 98.38060547 -69.32097656 97.39060547 -70.00097656 96.37060547 C-70.66097656 96.37060547 -71.32097656 96.37060547 -72.00097656 96.37060547 Z " fill="#111111" transform="translate(247.0009765625,124.62939453125)"/>
<path d="M0 0 C2.46654253 -0.00433741 4.93123763 -0.04064863 7.39746094 -0.07861328 C31.03525356 -0.24584684 56.00016915 6.81643727 74.99902344 21.37060547 C74.99902344 22.03060547 74.99902344 22.69060547 74.99902344 23.37060547 C76.0934375 23.74378906 76.0934375 23.74378906 77.20996094 24.12451172 C82.31132497 26.40369257 85.98964257 30.55541114 89.99902344 34.37060547 C90.90394531 35.21107422 91.80886719 36.05154297 92.74121094 36.91748047 C103.82389031 47.52922445 111.71262358 59.41580901 117.99902344 73.37060547 C118.38703125 74.23169922 118.77503906 75.09279297 119.17480469 75.97998047 C125.88543152 91.8367512 128.41620809 107.7975372 128.37402344 124.87060547 C128.37420471 125.99695404 128.37420471 125.99695404 128.37438965 127.14605713 C128.347252 138.99290236 127.40772299 149.965026 123.99902344 161.37060547 C123.69867188 162.46244141 123.39832031 163.55427734 123.08886719 164.67919922 C119.7157727 175.90824536 114.00599751 187.95566198 106.99902344 197.37060547 C106.33902344 197.37060547 105.67902344 197.37060547 104.99902344 197.37060547 C104.75023437 198.10021484 104.50144531 198.82982422 104.24511719 199.58154297 C100.07791545 208.90875939 87.56672473 220.73933976 78.99902344 226.37060547 C78.33902344 226.37060547 77.67902344 226.37060547 76.99902344 226.37060547 C76.66902344 225.38060547 76.33902344 224.39060547 75.99902344 223.37060547 C76.65902344 223.37060547 77.31902344 223.37060547 77.99902344 223.37060547 C78.32902344 218.09060547 78.65902344 212.81060547 78.99902344 207.37060547 C78.33902344 207.04060547 77.67902344 206.71060547 76.99902344 206.37060547 C78.62242149 204.66176542 80.29221397 202.9961383 81.99902344 201.37060547 C82.65902344 201.37060547 83.31902344 201.37060547 83.99902344 201.37060547 C84.11375 200.78794922 84.22847656 200.20529297 84.34667969 199.60498047 C85.04726406 197.20537412 85.98094938 195.64199614 87.43652344 193.62060547 C87.86835938 193.00701172 88.30019531 192.39341797 88.74511719 191.76123047 C89.15890625 191.30232422 89.57269531 190.84341797 89.99902344 190.37060547 C90.65902344 190.37060547 91.31902344 190.37060547 91.99902344 190.37060547 C92.26199219 189.65646484 92.52496094 188.94232422 92.79589844 188.20654297 C94.04634187 185.25906917 95.5591445 182.71311348 97.24902344 179.99560547 C111.71010635 155.53227354 115.71867008 126.91330806 108.99902344 99.37060547 C105.45913824 86.50299358 100.05209462 73.0664802 91.99902344 62.37060547 C91.99902344 61.71060547 91.99902344 61.05060547 91.99902344 60.37060547 C91.33902344 60.37060547 90.67902344 60.37060547 89.99902344 60.37060547 C88.71114101 58.89916279 87.49332017 57.36603397 86.31152344 55.80810547 C81.7460568 49.973538 77.17844603 44.78344959 71.06152344 40.55810547 C70.05089844 39.83623047 69.04027344 39.11435547 67.99902344 38.37060547 C67.99902344 37.71060547 67.99902344 37.05060547 67.99902344 36.37060547 C67.28488281 36.10763672 66.57074219 35.84466797 65.83496094 35.57373047 C62.88748714 34.32328704 60.34153145 32.8104844 57.62402344 31.12060547 C50.6880794 27.02054003 43.54783962 24.11562954 35.99902344 21.37060547 C35.12503906 21.05091797 34.25105469 20.73123047 33.35058594 20.40185547 C15.77351191 14.56229599 -3.40302753 14.21454156 -20.25097656 22.12060547 C-25.715959 24.99313237 -32.14245854 28.65356942 -35.00097656 34.37060547 C-35.66097656 34.37060547 -36.32097656 34.37060547 -37.00097656 34.37060547 C-37.27941406 35.09505859 -37.55785156 35.81951172 -37.84472656 36.56591797 C-39.28291054 40.05448587 -41.02331356 43.33979331 -42.78222656 46.67529297 C-47.73117349 57.62007944 -47.91351604 72.50470928 -44.50097656 83.99560547 C-40.65891893 93.4789942 -33.37281183 103.68468783 -24.00097656 108.37060547 C-24.00097656 109.03060547 -24.00097656 109.69060547 -24.00097656 110.37060547 C-23.45957031 110.49306641 -22.91816406 110.61552734 -22.36035156 110.74169922 C-19.58812259 111.48065429 -16.9423324 112.43986701 -14.25097656 113.43310547 C-12.77371094 113.97644531 -12.77371094 113.97644531 -11.26660156 114.53076172 C-10.14511719 114.94648438 -10.14511719 114.94648438 -9.00097656 115.37060547 C-9.00097656 116.03060547 -9.00097656 116.69060547 -9.00097656 117.37060547 C-5.04097656 117.70060547 -1.08097656 118.03060547 2.99902344 118.37060547 C2.99902344 120.35060547 2.99902344 122.33060547 2.99902344 124.37060547 C1.3323641 126.03726481 -0.67468389 125.50064461 -2.96191406 125.50341797 C-3.991875 125.50470703 -5.02183594 125.50599609 -6.08300781 125.50732422 C-7.1696875 125.50345703 -8.25636719 125.49958984 -9.37597656 125.49560547 C-10.42398438 125.49947266 -11.47199219 125.50333984 -12.55175781 125.50732422 C-19.42102021 125.49883317 -26.17267098 125.11646915 -33.00097656 124.37060547 C-33.00097656 123.38060547 -33.00097656 122.39060547 -33.00097656 121.37060547 C-33.82855469 121.00322266 -33.82855469 121.00322266 -34.67285156 120.62841797 C-37.47737148 119.11322432 -39.78200779 117.2597642 -42.25097656 115.24560547 C-43.14300781 114.52115234 -44.03503906 113.79669922 -44.95410156 113.05029297 C-45.62957031 112.49599609 -46.30503906 111.94169922 -47.00097656 111.37060547 C-47.7260445 128.77892899 -46.77118211 140.57572278 -37.00097656 155.37060547 C-37.00097656 156.03060547 -37.00097656 156.69060547 -37.00097656 157.37060547 C-36.34097656 157.37060547 -35.68097656 157.37060547 -35.00097656 157.37060547 C-34.50597656 158.05123047 -34.01097656 158.73185547 -33.50097656 159.43310547 C-25.07242279 169.33665615 -13.62321705 173.364473 -1.07910156 174.87841797 C3.04085048 175.53719203 6.77330771 176.22660413 9.87402344 179.12060547 C11.36683178 182.10622216 11.41160605 184.0699446 10.99902344 187.37060547 C9.21917939 190.50652117 8.47594137 191.21163283 4.99902344 192.37060547 C-13.20018726 192.47715822 -30.58069362 187.2275679 -44.00097656 174.37060547 C-44.00097656 173.71060547 -44.00097656 173.05060547 -44.00097656 172.37060547 C-44.66097656 172.37060547 -45.32097656 172.37060547 -46.00097656 172.37060547 C-47.70719857 170.30200002 -49.27202105 168.24531349 -50.81347656 166.05810547 C-51.26271484 165.42380615 -51.71195313 164.78950684 -52.17480469 164.13598633 C-62.14196047 149.72954037 -65.83945699 133.4054337 -63.56347656 116.03076172 C-62.58519048 109.89790557 -62.58519048 109.89790557 -64.16503906 104.09716797 C-65.67925003 102.32934531 -67.21522818 100.85872912 -69.00097656 99.37060547 C-70.0078808 98.37755771 -71.00997152 97.37952024 -72.00097656 96.37060547 C-78.86822549 121.20306809 -77.71705845 144.062294 -65.00585938 166.68798828 C-63.24197692 169.64150574 -61.24744361 172.3601685 -59.03222656 174.98779297 C-58.00097656 176.37060547 -58.00097656 176.37060547 -58.00097656 178.37060547 C-57.34097656 178.37060547 -56.68097656 178.37060547 -56.00097656 178.37060547 C-56.00097656 179.03060547 -56.00097656 179.69060547 -56.00097656 180.37060547 C-55.34097656 180.37060547 -54.68097656 180.37060547 -54.00097656 180.37060547 C-54.00097656 181.03060547 -54.00097656 181.69060547 -54.00097656 182.37060547 C-53.34097656 182.37060547 -52.68097656 182.37060547 -52.00097656 182.37060547 C-52.00097656 183.03060547 -52.00097656 183.69060547 -52.00097656 184.37060547 C-51.34097656 184.37060547 -50.68097656 184.37060547 -50.00097656 184.37060547 C-50.00097656 185.03060547 -50.00097656 185.69060547 -50.00097656 186.37060547 C-49.27136719 186.63228516 -48.54175781 186.89396484 -47.79003906 187.16357422 C-44.95375662 188.39104099 -42.83739137 189.82675417 -40.37597656 191.68310547 C-26.35920195 201.61852512 -9.10613971 206.25426637 7.99902344 204.37060547 C13.48416991 202.83279079 17.36544831 199.75226959 20.99902344 195.37060547 C23.6857617 189.84629452 23.56164542 184.39636839 22.99902344 178.37060547 C21.66916775 174.86582897 21.66916775 174.86582897 19.99902344 172.37060547 C19.99902344 171.71060547 19.99902344 171.05060547 19.99902344 170.37060547 C19.33902344 170.37060547 18.67902344 170.37060547 17.99902344 170.37060547 C17.99902344 169.71060547 17.99902344 169.05060547 17.99902344 168.37060547 C15.06181836 166.84761024 12.08215854 165.56960245 8.99902344 164.37060547 C8.99902344 163.71060547 8.99902344 163.05060547 8.99902344 162.37060547 C7.34902344 162.37060547 5.69902344 162.37060547 3.99902344 162.37060547 C3.99902344 157.75060547 3.99902344 153.13060547 3.99902344 148.37060547 C1.68902344 148.04060547 -0.62097656 147.71060547 -3.00097656 147.37060547 C-3.00097656 147.04060547 -3.00097656 146.71060547 -3.00097656 146.37060547 C8.61928392 145.69002622 18.63164823 148.30511086 27.99902344 155.37060547 C36.56433544 163.14830258 40.29560475 172.92928522 40.99902344 184.37060547 C40.52348166 193.99118142 37.29145179 202.98748953 30.99902344 210.37060547 C30.33902344 210.37060547 29.67902344 210.37060547 28.99902344 210.37060547 C28.99902344 211.03060547 28.99902344 211.69060547 28.99902344 212.37060547 C27.31152344 213.77294922 27.31152344 213.77294922 24.99902344 215.30810547 C24.25652344 215.81212891 23.51402344 216.31615234 22.74902344 216.83544922 C15.37757271 220.95047782 9.33348566 221.8948794 0.99902344 221.80810547 C-0.01337402 221.80125732 -1.02577148 221.79440918 -2.06884766 221.78735352 C-10.91551989 221.60015574 -18.60712659 220.16548079 -27.00097656 217.37060547 C-28.63679688 216.86207031 -28.63679688 216.86207031 -30.30566406 216.34326172 C-53.46167566 208.3886905 -73.27511943 190.25715178 -84.00097656 168.37060547 C-85.35837295 165.21403173 -86.6058665 162.0247079 -87.81347656 158.80810547 C-88.24865601 157.65773804 -88.24865601 157.65773804 -88.69262695 156.48413086 C-97.55513857 131.80970675 -94.32623362 104.80863665 -83.68457031 81.37060547 C-82.00097656 78.37060547 -82.00097656 78.37060547 -79.00097656 77.37060547 C-78.29048197 75.72214569 -77.62940073 74.05206474 -77.00097656 72.37060547 C-75.52050781 70.19482422 -75.52050781 70.19482422 -73.81347656 68.05810547 C-72.88341797 66.87474609 -72.88341797 66.87474609 -71.93457031 65.66748047 C-70.00097656 63.37060547 -70.00097656 63.37060547 -68.16113281 61.57373047 C-62.70438255 56.17668207 -61.15453866 50.37846899 -59.13378906 43.18310547 C-57.85423802 38.87675439 -56.1949974 35.27108696 -54.00097656 31.37060547 C-59.67743311 35.08923861 -64.36854974 38.77259049 -68.93847656 43.80810547 C-73.39028097 48.06047934 -76.59864679 48.94271352 -82.5480957 49.05834961 C-86.38749773 48.96711278 -90.17651288 48.7272912 -94.00097656 48.37060547 C-92.44637886 44.87276063 -90.63892161 43.27005038 -87.62988281 40.91357422 C-85.72885832 39.11284359 -84.55000373 37.22942024 -83.18847656 34.99560547 C-80.02890538 29.99225269 -76.01596274 26.48992687 -71.00097656 23.37060547 C-70.34097656 23.37060547 -69.68097656 23.37060547 -69.00097656 23.37060547 C-69.00097656 22.71060547 -69.00097656 22.05060547 -69.00097656 21.37060547 C-66.00097656 19.37060547 -66.00097656 19.37060547 -63.00097656 19.37060547 C-63.00097656 18.71060547 -63.00097656 18.05060547 -63.00097656 17.37060547 C-59.01323134 15.34541549 -55.01156667 13.35016161 -51.00097656 11.37060547 C-50.0921875 10.91814453 -49.18339844 10.46568359 -48.24707031 9.99951172 C-41.06993171 6.56603707 -33.72270828 4.26181035 -26.00097656 2.37060547 C-25.33791504 2.19110352 -24.67485352 2.01160156 -23.99169922 1.82666016 C-16.07334264 -0.07920048 -8.09753729 -0.00158589 0 0 Z " fill="#151515" transform="translate(247.0009765625,124.62939453125)"/>
<path d="M0 0 C1.01239746 0.00684814 2.02479492 0.01369629 3.06787109 0.02075195 C11.91078364 0.20787017 19.61143167 1.63518528 28 4.4375 C29.12535156 4.79972656 30.25070312 5.16195312 31.41015625 5.53515625 C52.40350551 12.91660802 72.75111265 29.41311501 83 49.4375 C84.49684474 52.69774106 85.89210958 55.99217678 87.25 59.3125 C87.57959717 60.11429688 87.90919434 60.91609375 88.2487793 61.7421875 C92.80013207 73.36682453 94.45307122 84.29539074 94.1875 96.75 C94.17396484 97.97912109 94.16042969 99.20824219 94.14648438 100.47460938 C94.11160365 103.46272513 94.06259698 106.44985873 94 109.4375 C93.67 109.4375 93.34 109.4375 93 109.4375 C92.93941406 108.67824219 92.87882813 107.91898437 92.81640625 107.13671875 C92.73261719 106.14285156 92.64882813 105.14898437 92.5625 104.125 C92.48128906 103.13886719 92.40007812 102.15273437 92.31640625 101.13671875 C92.08187441 98.34374401 92.08187441 98.34374401 91 95.4375 C89.35 95.1075 87.7 94.7775 86 94.4375 C86 95.7575 86 97.0775 86 98.4375 C88.475 97.9425 88.475 97.9425 91 97.4375 C91 98.0975 91 98.7575 91 99.4375 C85.25 100.5625 85.25 100.5625 83 99.4375 C83 97.7875 83 96.1375 83 94.4375 C81.02 93.9425 81.02 93.9425 79 93.4375 C79 97.0675 79 100.6975 79 104.4375 C78.67 104.4375 78.34 104.4375 78 104.4375 C77.97421875 103.2515625 77.9484375 102.065625 77.921875 100.84375 C77.31042221 81.04050286 73.13453573 62.36303972 60.03125 46.8203125 C59 45.4375 59 45.4375 59 43.4375 C58.34 43.4375 57.68 43.4375 57 43.4375 C57 42.7775 57 42.1175 57 41.4375 C56.34 41.4375 55.68 41.4375 55 41.4375 C55 40.7775 55 40.1175 55 39.4375 C54.34 39.4375 53.68 39.4375 53 39.4375 C53 38.7775 53 38.1175 53 37.4375 C52.34 37.4375 51.68 37.4375 51 37.4375 C51 36.7775 51 36.1175 51 35.4375 C50.27039063 35.17582031 49.54078125 34.91414063 48.7890625 34.64453125 C45.95278006 33.41706448 43.83641481 31.9813513 41.375 30.125 C27.35822539 20.18958035 10.10516314 15.5538391 -7 17.4375 C-12.48514648 18.97531468 -16.36642488 22.05583588 -20 26.4375 C-21.92889352 30.34266337 -22.2973057 33.60205908 -22.3125 37.9375 C-22.32925781 39.0409375 -22.34601563 40.144375 -22.36328125 41.28125 C-21.96361991 44.75357647 -20.91675478 46.56489653 -19 49.4375 C-19 50.0975 -19 50.7575 -19 51.4375 C-18.34 51.4375 -17.68 51.4375 -17 51.4375 C-17 52.0975 -17 52.7575 -17 53.4375 C-15.88625 53.870625 -15.88625 53.870625 -14.75 54.3125 C-12 55.4375 -12 55.4375 -10.3671875 56.42578125 C-6.82378469 57.94020588 -3.17419819 58.23097108 0.625 58.75 C11.49093219 60.41968026 20.59521774 63.93864927 28 72.4375 C32.89527847 79.86040592 35.16023059 85.85651657 35.0625 94.75 C35.05347656 95.81863281 35.04445313 96.88726562 35.03515625 97.98828125 C35.02355469 98.79652344 35.01195312 99.60476562 35 100.4375 C34.67 99.4475 34.34 98.4575 34 97.4375 C22.45 97.4375 10.9 97.4375 -1 97.4375 C-1 94.7975 -1 92.1575 -1 89.4375 C5.27 89.7675 11.54 90.0975 18 90.4375 C14.03264307 82.50278613 12.08141556 79.19921624 4 76.4375 C1.61111917 76.09350116 -0.78632858 75.80634953 -3.1875 75.5625 C-15.03348221 74.14968966 -24.80463901 70.03701261 -32.3125 60.5 C-39.24247153 50.63232314 -40.46808658 39.42019922 -38.5390625 27.6171875 C-36.9345022 21.59536707 -34.09614383 16.16118676 -30 11.4375 C-29.34 11.4375 -28.68 11.4375 -28 11.4375 C-28 10.7775 -28 10.1175 -28 9.4375 C-26.3125 8.03515625 -26.3125 8.03515625 -24 6.5 C-23.2575 5.99597656 -22.515 5.49195313 -21.75 4.97265625 C-14.37854927 0.85762765 -8.33446222 -0.08677393 0 0 Z " fill="#161616" transform="translate(252,153.5625)"/>
<path d="M0 0 C1.12535156 0.36222656 2.25070312 0.72445312 3.41015625 1.09765625 C24.40350551 8.47910802 44.75111265 24.97561501 55 45 C56.49684474 48.26024106 57.89210958 51.55467678 59.25 54.875 C59.57959717 55.67679688 59.90919434 56.47859375 60.2487793 57.3046875 C64.80013207 68.92932453 66.45307122 79.85789074 66.1875 92.3125 C66.16719727 94.15618164 66.16719727 94.15618164 66.14648438 96.03710938 C66.11160365 99.02522513 66.06259698 102.01235873 66 105 C65.67 105 65.34 105 65 105 C64.93941406 104.24074219 64.87882812 103.48148437 64.81640625 102.69921875 C64.73261719 101.70535156 64.64882813 100.71148437 64.5625 99.6875 C64.48128906 98.70136719 64.40007812 97.71523437 64.31640625 96.69921875 C64.08187441 93.90624401 64.08187441 93.90624401 63 91 C61.35 90.67 59.7 90.34 58 90 C58 91.32 58 92.64 58 94 C59.65 93.67 61.3 93.34 63 93 C63 93.66 63 94.32 63 95 C57.25 96.125 57.25 96.125 55 95 C55 93.35 55 91.7 55 90 C53.02 89.505 53.02 89.505 51 89 C51 92.63 51 96.26 51 100 C50.67 100 50.34 100 50 100 C49.97421875 98.8140625 49.9484375 97.628125 49.921875 96.40625 C49.31042221 76.60300286 45.13453573 57.92553972 32.03125 42.3828125 C31 41 31 41 31 39 C30.34 39 29.68 39 29 39 C29 38.34 29 37.68 29 37 C28.34 37 27.68 37 27 37 C27 36.34 27 35.68 27 35 C26.34 35 25.68 35 25 35 C25 34.34 25 33.68 25 33 C24.34 33 23.68 33 23 33 C23 32.34 23 31.68 23 31 C22.27039063 30.73832031 21.54078125 30.47664063 20.7890625 30.20703125 C17.95278006 28.97956448 15.83641481 27.5438513 13.375 25.6875 C-2.42073356 14.49111239 -19.16339262 12.26291536 -38 13 C-37.34 12.01 -36.68 11.02 -36 10 C-35.01 10.33 -34.02 10.66 -33 11 C-32.67 9.68 -32.34 8.36 -32 7 C-30.35 7 -28.7 7 -27 7 C-29.97 6.505 -29.97 6.505 -33 6 C-33 5.01 -33 4.02 -33 3 C-31.35 3 -29.7 3 -28 3 C-28 2.01 -28 1.02 -28 0 C-29.65 0 -31.3 0 -33 0 C-33 -0.66 -33 -1.32 -33 -2 C-37.69023454 -1.43393721 -42.34500026 -0.81462495 -47 0 C-36.97095193 -10.02904807 -11.92360517 -3.9832416 0 0 Z " fill="#1A1A1A" transform="translate(280,158)"/>
<path d="M0 0 C0 3.80793725 -1.25698166 6.15063057 -2.8125 9.625 C-4.59457268 13.61381385 -6.21845998 17.51059493 -7.3125 21.75 C-8.84141411 26.65338135 -12.13683248 29.71628553 -15.63671875 33.359375 C-19.36082865 37.52052921 -22.16553569 42.20601856 -25 47 C-26 44 -26 44 -25 41 C-24.85426942 39.52034074 -24.75336732 38.03596157 -24.68359375 36.55078125 C-24.62075195 35.27944336 -24.62075195 35.27944336 -24.55664062 33.98242188 C-24.51732422 33.10134766 -24.47800781 32.22027344 -24.4375 31.3125 C-24.37272461 29.97348633 -24.37272461 29.97348633 -24.30664062 28.60742188 C-24.20064647 26.40509892 -24.09857949 24.20266527 -24 22 C-24.40992188 22.5775 -24.81984375 23.155 -25.2421875 23.75 C-25.78101563 24.4925 -26.31984375 25.235 -26.875 26 C-27.40867188 26.7425 -27.94234375 27.485 -28.4921875 28.25 C-28.98976562 28.8275 -29.48734375 29.405 -30 30 C-30.66 30 -31.32 30 -32 30 C-32.26425781 30.71929687 -32.52851563 31.43859375 -32.80078125 32.1796875 C-34.02544575 35.0598431 -35.50736428 37.48753295 -37.1875 40.125 C-47.87514602 58.24267969 -51.13006367 78.3647026 -53 99 C-53.99 99 -54.98 99 -56 99 C-56 97.35 -56 95.7 -56 94 C-56.66 94 -57.32 94 -58 94 C-58 95.65 -58 97.3 -58 99 C-60.97 99 -63.94 99 -67 99 C-67 103.62 -67 108.24 -67 113 C-67.33 113 -67.66 113 -68 113 C-68.84552339 72.99698771 -68.84552339 72.99698771 -64 58 C-63.68651611 56.98317139 -63.68651611 56.98317139 -63.36669922 55.94580078 C-56.8407083 35.25327677 -44.70632082 17.80404281 -29 3 C-29 6.54913582 -29.56122405 6.97588078 -31.875 9.5 C-33.81019815 11.63152259 -35.39002236 13.58503354 -37 16 C-37.66 16 -38.32 16 -39 16 C-39.33 16.66 -39.66 17.32 -40 18 C-35.20359213 18.03354131 -30.43501586 17.97791873 -25.6484375 17.65234375 C-24.85356934 17.60070068 -24.05870117 17.54905762 -23.23974609 17.49584961 C-19.77448937 16.72868846 -17.75059722 14.93690073 -15.6796875 12.1171875 C-13.41183005 9.25863229 -10.61336697 7.25632983 -7.6875 5.125 C-6.66011719 4.36445313 -5.63273437 3.60390625 -4.57421875 2.8203125 C-2 1 -2 1 0 0 Z " fill="#171717" transform="translate(193,155)"/>
<path d="M0 0 C0.33 0 0.66 0 1 0 C1 2.64 1 5.28 1 8 C2.32 8 3.64 8 5 8 C5 6.35 5 4.7 5 3 C5.66 3 6.32 3 7 3 C7 4.65 7 6.3 7 8 C7.99 8 8.98 8 10 8 C10.14248169 8.82854492 10.14248169 8.82854492 10.2878418 9.67382812 C13.6994198 29.22409351 18.18652278 46.81644948 28.9375 63.75 C31 67 31 67 31 69 C31.66 69 32.32 69 33 69 C35.53906064 71.61373889 36.92256852 73.12889581 37.25 76.8125 C37.1675 77.534375 37.085 78.25625 37 79 C33.99686252 80.50156874 31.20932478 80.09281204 27.875 80.0625 C26.59367187 80.05347656 25.31234375 80.04445313 23.9921875 80.03515625 C23.00476563 80.02355469 22.01734375 80.01195312 21 80 C20.67 79.01 20.34 78.02 20 77 C19.11441406 76.86658203 19.11441406 76.86658203 18.2109375 76.73046875 C14.6403692 75.55079336 13.39860596 72.42389405 11.625 69.3125 C11.2328833 68.63840088 10.8407666 67.96430176 10.43676758 67.26977539 C1.46942578 51.52866136 -4.25327389 34.77406923 -4.0625 16.5625 C-4.05798828 15.73556641 -4.05347656 14.90863281 -4.04882812 14.05664062 C-4.03715811 12.03772854 -4.01922718 10.01885426 -4 8 C-2.68 8 -1.36 8 0 8 C0 5.36 0 2.72 0 0 Z " fill="#151515" transform="translate(130,246)"/>
<path d="M0 0 C3.20547958 1.43024761 5.5354446 3.20433073 8.125 5.5625 C10.86038045 8.07679216 10.86038045 8.07679216 14 10 C14 10.99 14 11.98 14 13 C25.55 13 37.1 13 49 13 C49.33 11.02 49.66 9.04 50 7 C48.046875 7.06510417 46.09375 7.13020833 44.140625 7.1953125 C41.69275542 6.97196674 40.15454671 6.14041026 38 5 C41.18776711 5.14032492 44.3751385 5.28826644 47.5625 5.4375 C48.45775391 5.47681641 49.35300781 5.51613281 50.27539062 5.55664062 C55.2458219 5.79332783 60.08823519 6.19821672 65 7 C65 7.33 65 7.66 65 8 C63.22925083 8.02705729 61.45838289 8.04642195 59.6875 8.0625 C58.70136719 8.07410156 57.71523438 8.08570313 56.69921875 8.09765625 C54 8 54 8 51 7 C51 11.62 51 16.24 51 21 C54.96 21.33 58.92 21.66 63 22 C63 22.33 63 22.66 63 23 C51.87648788 22.54936731 40.99323823 21.84715096 30 20 C32.75374155 26.33822079 35.26270908 30.33898181 41.8125 33.25 C42.534375 33.4975 43.25625 33.745 44 34 C44 34.66 44 35.32 44 36 C46.31 36.33 48.62 36.66 51 37 C51 41.62 51 46.24 51 51 C52.65 51 54.3 51 56 51 C56 51.33 56 51.66 56 52 C45.31320006 51.51423637 35.71856768 50.6909938 27 44 C26.175 43.443125 25.35 42.88625 24.5 42.3125 C16.21727488 34.65097927 12.99627689 24.95904584 12 14 C10.39125 13.566875 10.39125 13.566875 8.75 13.125 C5 12 5 12 1 10 C0.67 14.29 0.34 18.58 0 23 C-0.33 23 -0.66 23 -1 23 C-1.02894547 19.54168414 -1.04678 16.08339928 -1.0625 12.625 C-1.07087891 11.64015625 -1.07925781 10.6553125 -1.08789062 9.640625 C-1.09111328 8.69960937 -1.09433594 7.75859375 -1.09765625 6.7890625 C-1.10289307 5.91975098 -1.10812988 5.05043945 -1.11352539 4.15478516 C-1 2 -1 2 0 0 Z " fill="#1D1D1D" transform="translate(200,236)"/>
<path d="M0 0 C1.66438172 4.99314515 0.87249163 10.04804523 0.5625 15.25 C0.52962891 16.37019531 0.49675781 17.49039062 0.46289062 18.64453125 C-0.0515686 26.78933435 -0.0515686 26.78933435 -2.76245117 30.24975586 C-4.76471395 32.00211042 -6.80245607 33.50441257 -9 35 C-10.15956986 36.00520269 -11.30790678 37.02372481 -12.4375 38.0625 C-16.36081517 41.43182854 -20.64916507 44.21783344 -25 47 C-25.33 46.34 -25.66 45.68 -26 45 C-25.109375 42.96875 -25.109375 42.96875 -23.75 40.5 C-20.7992328 34.84436286 -18.84883837 29.09527285 -17.5546875 22.8515625 C-16.642341 19.80612418 -14.27025959 18.17155266 -12 16 C-7.31687942 11.02819391 -3.41483002 5.91694049 0 0 Z " fill="#BEBFC0" transform="translate(332,298)"/>
<path d="M0 0 C0 3.80793725 -1.25698166 6.15063057 -2.8125 9.625 C-4.59457268 13.61381385 -6.21845998 17.51059493 -7.3125 21.75 C-8.84141411 26.65338135 -12.13683248 29.71628553 -15.63671875 33.359375 C-19.36082865 37.52052921 -22.16553569 42.20601856 -25 47 C-26 44 -26 44 -25 41 C-24.96659224 39.48860501 -24.98420976 37.97574923 -25.03515625 36.46484375 C-25.20572777 22.12641948 -25.20572777 22.12641948 -22.1328125 16.70703125 C-19.57145807 14.13340196 -16.97592893 12.07885992 -14 10 C-12.90809952 9.15573344 -11.8209582 8.30528143 -10.73828125 7.44921875 C-3.34502615 1.67251307 -3.34502615 1.67251307 0 0 Z " fill="#BEBFBF" transform="translate(193,155)"/>
<path d="M0 0 C2.39763185 2.39763185 2.34280586 3.33273498 2.625 6.625 C2.69976562 7.44226563 2.77453125 8.25953125 2.8515625 9.1015625 C2.92503906 10.04128906 2.92503906 10.04128906 3 11 C4.32 11.33 5.64 11.66 7 12 C7 12.66 7 13.32 7 14 C5 15 3 16 1 17 C1.2475 17.76957031 1.2475 17.76957031 1.5 18.5546875 C2.16011297 21.78305247 2.05498324 24.83287831 2 28.125 C1.73561436 32.72725335 1.73561436 32.72725335 3 37 C-4.1907887 33.68845257 -9.64778917 27.47053493 -15.25 22 C-15.75724609 21.51418457 -16.26449219 21.02836914 -16.78710938 20.52783203 C-20.34244447 17.00419906 -22.67231071 13.43369388 -25 9 C-24.34 9 -23.68 9 -23 9 C-22.67 9.66 -22.34 10.32 -22 11 C-16.72 11 -11.44 11 -6 11 C-5.67 10.01 -5.34 9.02 -5 8 C-4.01 8.99 -3.02 9.98 -2 11 C-1.34 7.37 -0.68 3.74 0 0 Z " fill="#191919" transform="translate(173,314)"/>
<path d="M0 0 C0.33 0 0.66 0 1 0 C0.95875 1.216875 0.9175 2.43375 0.875 3.6875 C0.86245492 7.21894127 1.40001783 9.80003566 3 13 C3.66 13 4.32 13 5 13 C6.38938077 14.96147874 7.7260411 16.96166576 9 19 C9.66 18.34 10.32 17.68 11 17 C11 18.32 11 19.64 11 21 C10.34 21 9.68 21 9 21 C8.84337891 22.07507813 8.84337891 22.07507813 8.68359375 23.171875 C7.92654929 26.30387609 6.74143155 28.50788198 5.0625 31.25 C4.53785156 32.12140625 4.01320313 32.9928125 3.47265625 33.890625 C2 36 2 36 0 37 C-0.81436587 34.58394775 -1.62655397 32.16720002 -2.4375 29.75 C-2.66759766 29.06808594 -2.89769531 28.38617188 -3.13476562 27.68359375 C-3.76805907 25.79289159 -4.38461201 23.89660562 -5 22 C-5.38285156 20.9171875 -5.38285156 20.9171875 -5.7734375 19.8125 C-6.09775251 17.21797992 -5.25348416 15.61550548 -4.1875 13.25 C-2.30568752 8.8612747 -1.0348548 4.65684658 0 0 Z " fill="#BBBBBD" transform="translate(315,260)"/>
<path d="M0 0 C4.87740157 1.47854687 7.69916125 4.2142302 11.1875 7.75 C11.72052734 8.26304687 12.25355469 8.77609375 12.80273438 9.3046875 C13.31513672 9.81773437 13.82753906 10.33078125 14.35546875 10.859375 C15.04612427 11.54725098 15.04612427 11.54725098 15.75073242 12.24902344 C17 14 17 14 19 20 C12.73 20 6.46 20 0 20 C-0.76232345 16.18838277 -1.13559202 13.24533238 -1.125 9.4375 C-1.12757813 8.50808594 -1.13015625 7.57867187 -1.1328125 6.62109375 C-1.01309964 4.25852524 -0.66993233 2.25969237 0 0 Z " fill="#0F0F0F" transform="translate(328,153)"/>
<path d="M0 0 C4.34651196 8.39801179 7.13317046 15.10052679 4.25 24.42578125 C3.53628962 26.63210709 2.7864457 28.81872607 2 31 C-0.79155452 27.58810003 -3.36818537 24.09119341 -5.8515625 20.453125 C-6.95497759 18.84566376 -6.95497759 18.84566376 -9 18 C-7.14086809 11.10164214 -4.20484217 5.75614317 0 0 Z " fill="#BEBEC0" transform="translate(184,203)"/>
<path d="M0 0 C0.02696009 2.7708983 0.04681952 5.5415345 0.0625 8.3125 C0.07087891 9.09818359 0.07925781 9.88386719 0.08789062 10.69335938 C0.09272461 11.8293457 0.09272461 11.8293457 0.09765625 12.98828125 C0.10551147 14.03302612 0.10551147 14.03302612 0.11352539 15.09887695 C0 17 0 17 -1 20 C-7.27 20 -13.54 20 -20 20 C-18.10609431 16.21218862 -16.72302348 14.88334699 -13.5078125 12.3515625 C-11.73973178 10.87970279 -11.73973178 10.87970279 -10 8 C-7.73944583 4.60916874 -4.42432852 0 0 0 Z " fill="#030303" transform="translate(173,153)"/>
<path d="M0 0 C5.34111123 -0.21364445 10.06429741 -0.35033457 15 2 C17.49855962 4.33198898 17.94921961 5.59375689 18.375 9 C17.95989664 12.32082686 17.34610397 13.65389603 15 16 C11.52674819 17.1577506 8.63932552 17.06866652 5 17 C5 16.67 5 16.34 5 16 C6.65 16 8.3 16 10 16 C9.85970581 13.8537974 9.71261836 11.70803782 9.5625 9.5625 C9.48128906 8.36753906 9.40007812 7.17257812 9.31640625 5.94140625 C9.32343886 3.11429756 9.32343886 3.11429756 8 2 C6.65252916 1.76924918 5.29622435 1.58846937 3.9375 1.4375 C2.638125 1.293125 1.33875 1.14875 0 1 C0 0.67 0 0.34 0 0 Z " fill="#434343" transform="translate(240,300)"/>
<path d="M0 0 C0.33 0 0.66 0 1 0 C1.02909763 3.24998112 1.04683161 6.49992857 1.0625 9.75 C1.07087891 10.67039063 1.07925781 11.59078125 1.08789062 12.5390625 C1.09111328 13.42851562 1.09433594 14.31796875 1.09765625 15.234375 C1.10289307 16.05131836 1.10812988 16.86826172 1.11352539 17.70996094 C1.00299021 19.93968135 0.62055567 21.86133755 0 24 C-5.10988003 21.69117806 -9.35948486 18.25108372 -13 14 C-13.76539191 11.26205445 -13.53412113 9.84864603 -13 7 C-12.67 7.99 -12.34 8.98 -12 10 C-10.00480364 10.98940061 -10.00480364 10.98940061 -7.625 11.625 C-6.43777344 11.98464844 -6.43777344 11.98464844 -5.2265625 12.3515625 C-4.49179687 12.56554687 -3.75703125 12.77953125 -3 13 C-2.01 13.33 -1.02 13.66 0 14 C0 9.38 0 4.76 0 0 Z " fill="#D8D8D9" transform="translate(300,240)"/>
<path d="M0 0 C0.74958984 0.05220703 1.49917969 0.10441406 2.27148438 0.15820312 C4.11887082 0.28763784 5.96574371 0.42436518 7.8125 0.5625 C7.8125 0.8925 7.8125 1.2225 7.8125 1.5625 C2.8625 1.8925 -2.0875 2.2225 -7.1875 2.5625 C-7.1875 6.1925 -7.1875 9.8225 -7.1875 13.5625 C-6.5275 13.5625 -5.8675 13.5625 -5.1875 13.5625 C-5.1875 14.2225 -5.1875 14.8825 -5.1875 15.5625 C-7.4375 15.875 -7.4375 15.875 -10.1875 15.5625 C-13.03130195 12.94927659 -14.0766602 11.33837857 -14.625 7.5 C-14.14124115 4.25190486 -13.49338726 2.86838726 -11.1875 0.5625 C-7.35939179 -0.71353607 -3.95274893 -0.30033987 0 0 Z " fill="#262626" transform="translate(256.1875,183.4375)"/>
<path d="M0 0 C3.33235005 1.49802892 5.95957916 3.39729223 8.75 5.75 C9.54921875 6.40484375 10.3484375 7.0596875 11.171875 7.734375 C13.51039971 10.63254665 13.35251814 12.37113679 13 16 C12.67 15.34 12.34 14.68 12 14 C9.67684969 13.2986716 7.34210921 12.63514826 5 12 C3.68 11.34 2.36 10.68 1 10 C0.67 14.29 0.34 18.58 0 23 C-0.33 23 -0.66 23 -1 23 C-1.02894547 19.54168414 -1.04678 16.08339928 -1.0625 12.625 C-1.07087891 11.64015625 -1.07925781 10.6553125 -1.08789062 9.640625 C-1.09111328 8.69960937 -1.09433594 7.75859375 -1.09765625 6.7890625 C-1.10289307 5.91975098 -1.10812988 5.05043945 -1.11352539 4.15478516 C-1 2 -1 2 0 0 Z " fill="#D7D7D9" transform="translate(200,236)"/>
<path d="M0 0 C0.33 0 0.66 0 1 0 C2.03904143 4.25934759 2.14537624 8.39156891 2.1328125 12.75 C2.13376923 13.48573242 2.13472595 14.22146484 2.13571167 14.97949219 C2.13638975 16.52929775 2.13456148 18.07910621 2.13037109 19.62890625 C2.12501755 21.9922528 2.13032869 24.35540932 2.13671875 26.71875 C2.1360579 28.22916708 2.1347766 29.73958405 2.1328125 31.25 C2.13483673 31.9522168 2.13686096 32.65443359 2.13894653 33.37792969 C2.12154778 37.04400866 1.86974224 40.43466138 1 44 C0.67 44 0.34 44 0 44 C0.495 35.09 0.495 35.09 1 26 C-0.32 26 -1.64 26 -3 26 C-3 22.7 -3 19.4 -3 16 C-1.68 16 -0.36 16 1 16 C0.67 10.72 0.34 5.44 0 0 Z " fill="#515151" transform="translate(373,228)"/>
<path d="M0 0 C2.97 0 5.94 0 9 0 C9 1.32 9 2.64 9 4 C12.96 4 16.92 4 21 4 C21 4.33 21 4.66 21 5 C9.12 5 -2.76 5 -15 5 C-15 4.67 -15 4.34 -15 4 C-10.05 4 -5.1 4 0 4 C0 2.68 0 1.36 0 0 Z " fill="#4E4E4E" transform="translate(247,370)"/>
<path d="M0 0 C0.33 0 0.66 0 1 0 C1 4.62 1 9.24 1 14 C2.32 14 3.64 14 5 14 C5 16.64 5 19.28 5 22 C3.68 22 2.36 22 1 22 C1 26.62 1 31.24 1 36 C0.67 36 0.34 36 0 36 C0 24.12 0 12.24 0 0 Z " fill="#494949" transform="translate(125,232)"/>
<path d="M0 0 C12.54 0 25.08 0 38 0 C38 0.33 38 0.66 38 1 C33.05 1 28.1 1 23 1 C23 2.32 23 3.64 23 5 C20.69 5 18.38 5 16 5 C16 3.68 16 2.36 16 1 C10.72 1 5.44 1 0 1 C0 0.67 0 0.34 0 0 Z " fill="#535353" transform="translate(231,125)"/>
<path d="M0 0 C2.1875 1.9375 2.1875 1.9375 3.0625 4.0625 C3.23563295 8.04455779 3.11199543 12.04658012 2.1875 15.9375 C1.5275 16.2675 0.8675 16.5975 0.1875 16.9375 C-1.34758028 14.50411348 -1.84338304 13.26625493 -1.5703125 10.359375 C-1.25707031 9.03679687 -1.25707031 9.03679687 -0.9375 7.6875 C-0.73382813 6.79546875 -0.53015625 5.9034375 -0.3203125 4.984375 C-0.15273438 4.30890625 0.01484375 3.6334375 0.1875 2.9375 C-2.4525 2.9375 -5.0925 2.9375 -7.8125 2.9375 C-8.1425 2.2775 -8.4725 1.6175 -8.8125 0.9375 C-3.60695145 -1.3626261 -3.60695145 -1.3626261 0 0 Z " fill="#F7F7F7" transform="translate(325.8125,172.0625)"/>
<path d="M0 0 C0.33 0 0.66 0 1 0 C1 5.94 1 11.88 1 18 C-0.65 17.67 -2.3 17.34 -4 17 C-4 13.7 -4 10.4 -4 7 C-2.68 6.67 -1.36 6.34 0 6 C0 4.02 0 2.04 0 0 Z " fill="#4C4C4C" transform="translate(169,240)"/>
<path d="M0 0 C0.59296875 0.33773438 1.1859375 0.67546875 1.796875 1.0234375 C4.80377436 2.35628296 6.85751776 1.71420051 10 1 C5.85989729 5.54075781 1.17609824 8.71842138 -4 12 C-4.33 11.34 -4.66 10.68 -5 10 C-4.00390625 7.6171875 -4.00390625 7.6171875 -2.5625 4.875 C-1.85287109 3.50988281 -1.85287109 3.50988281 -1.12890625 2.1171875 C-0.75636719 1.41851562 -0.38382812 0.71984375 0 0 Z " fill="#ABABAB" transform="translate(311,333)"/>
<path d="M0 0 C3.12290635 0.48578543 5.99580359 0.9986012 9 2 C8.67 4.64 8.34 7.28 8 10 C4.18315774 8.44499019 1.80804268 5.96404505 -1 3 C-0.67 2.01 -0.34 1.02 0 0 Z " fill="#B9B9BB" transform="translate(292,254)"/>
<path d="M0 0 C2.39763185 2.39763185 2.34280586 3.33273498 2.625 6.625 C2.69976562 7.44226563 2.77453125 8.25953125 2.8515625 9.1015625 C2.92503906 10.04128906 2.92503906 10.04128906 3 11 C4.32 11.33 5.64 11.66 7 12 C7 12.66 7 13.32 7 14 C0.6 15.35384615 0.6 15.35384615 -2.4375 13.5625 C-2.953125 13.046875 -3.46875 12.53125 -4 12 C-3.67 11.34 -3.34 10.68 -3 10 C-2.67 10.33 -2.34 10.66 -2 11 C-1.34 7.37 -0.68 3.74 0 0 Z " fill="#F5F5F5" transform="translate(173,314)"/>
<path d="M0 0 C0 3.54913582 -0.56122405 3.97588078 -2.875 6.5 C-4.81019815 8.63152259 -6.39002236 10.58503354 -8 13 C-8.66 13 -9.32 13 -10 13 C-10.33 13.66 -10.66 14.32 -11 15 C-6.71 15 -2.42 15 2 15 C2 15.33 2 15.66 2 16 C0.41058594 16.09087891 0.41058594 16.09087891 -1.2109375 16.18359375 C-2.59897221 16.26800127 -3.98699232 16.35264917 -5.375 16.4375 C-6.07367188 16.47681641 -6.77234375 16.51613281 -7.4921875 16.55664062 C-11.37360492 16.74280134 -11.37360492 16.74280134 -15 18 C-11.76869896 10.87213005 -5.53174141 5.39682089 0 0 Z " fill="#636363" transform="translate(164,158)"/>
<path d="M0 0 C0.66 0.33 1.32 0.66 2 1 C1.67 1.99 1.34 2.98 1 4 C0.90544339 5.97734566 0.87010606 7.95790083 0.875 9.9375 C0.87242187 10.97777344 0.86984375 12.01804688 0.8671875 13.08984375 C0.98067977 15.57665971 1.28071429 17.63092407 2 20 C0.68 20.99 -0.64 21.98 -2 23 C-2.33 22.34 -2.66 21.68 -3 21 C-2.34 21 -1.68 21 -1 21 C-1 15.39 -1 9.78 -1 4 C-3.97 6.475 -3.97 6.475 -7 9 C-7.66 8.67 -8.32 8.34 -9 8 C-6.03 5.36 -3.06 2.72 0 0 Z " fill="#222222" transform="translate(174,149)"/>
<path d="M0 0 C3.33523252 1.38009621 5.18607951 2.84950652 7 6 C6.67 6.99 6.34 7.98 6 9 C1.25 8.125 1.25 8.125 -1 7 C-0.67 4.69 -0.34 2.38 0 0 Z " fill="#BBBBBD" transform="translate(200,236)"/>
<path d="M0 0 C2.31 0 4.62 0 7 0 C8.35439668 2.70879335 8.06501451 5.00933268 8 8 C7.01 8 6.02 8 5 8 C5 6.02 5 4.04 5 2 C4.34 2 3.68 2 3 2 C2.67 3.98 2.34 5.96 2 8 C1.34 8 0.68 8 0 8 C0 5.36 0 2.72 0 0 Z " fill="#2A2A2A" transform="translate(156,246)"/>
<path d="M0 0 C0 3.23655184 -0.6550847 4.78752639 -2 7.6875 C-2.556875 8.89986328 -2.556875 8.89986328 -3.125 10.13671875 C-3.41375 10.75160156 -3.7025 11.36648437 -4 12 C-7.875 9.375 -7.875 9.375 -9 6 C-6.03 4.02 -3.06 2.04 0 0 Z " fill="#B7B7B7" transform="translate(193,155)"/>
<path d="M0 0 C2.97 0.495 2.97 0.495 6 1 C6 1.99 6 2.98 6 4 C7.32 4.33 8.64 4.66 10 5 C2.08 5.495 2.08 5.495 -6 6 C-5.34 5.01 -4.68 4.02 -4 3 C-3.01 3.33 -2.02 3.66 -1 4 C-0.67 2.68 -0.34 1.36 0 0 Z " fill="#5B5B5B" transform="translate(248,165)"/>
<path d="M0 0 C0.66 0.33 1.32 0.66 2 1 C2 2.32 2 3.64 2 5 C0.75283203 5.09087891 0.75283203 5.09087891 -0.51953125 5.18359375 C-2.14955078 5.30927734 -2.14955078 5.30927734 -3.8125 5.4375 C-4.89144531 5.51871094 -5.97039062 5.59992188 -7.08203125 5.68359375 C-10.05989905 5.90212461 -10.05989905 5.90212461 -13 7 C-13.33 7.66 -13.66 8.32 -14 9 C-15.65 6.69 -17.3 4.38 -19 2 C-18.34 1.67 -17.68 1.34 -17 1 C-16.67 1.66 -16.34 2.32 -16 3 C-10.72 3 -5.44 3 0 3 C0 2.01 0 1.02 0 0 Z " fill="#272727" transform="translate(167,322)"/>
<path d="M0 0 C2.5625 0.25 2.5625 0.25 5 1 C5.33 1.66 5.66 2.32 6 3 C4.35 2.67 2.7 2.34 1 2 C1 3.32 1 4.64 1 6 C2.65 5.67 4.3 5.34 6 5 C6 5.66 6 6.32 6 7 C0.25 8.125 0.25 8.125 -2 7 C-2.125 4.625 -2.125 4.625 -2 2 C-1.34 1.34 -0.68 0.68 0 0 Z " fill="#2B2B2B" transform="translate(337,246)"/>
<path d="M0 0 C2.31 0 4.62 0 7 0 C7.04241723 2.33294775 7.04092937 4.66702567 7 7 C6 8 6 8 2.9375 8.0625 C1.968125 8.041875 0.99875 8.02125 0 8 C0 7.01 0 6.02 0 5 C1.65 5 3.3 5 5 5 C5 4.01 5 3.02 5 2 C3.35 2 1.7 2 0 2 C0 1.34 0 0.68 0 0 Z " fill="#2D2D2D" transform="translate(247,156)"/>
<path d="M0 0 C1.98 0 3.96 0 6 0 C5.34 0.66 4.68 1.32 4 2 C4 2.99 4 3.98 4 5 C-2.27 5 -8.54 5 -15 5 C-15 4.67 -15 4.34 -15 4 C-10.05 4 -5.1 4 0 4 C0 2.68 0 1.36 0 0 Z " fill="#474747" transform="translate(247,370)"/>
<path d="M0 0 C0.74958984 0.05220703 1.49917969 0.10441406 2.27148438 0.15820312 C4.11887082 0.28763784 5.96574371 0.42436518 7.8125 0.5625 C7.8125 0.8925 7.8125 1.2225 7.8125 1.5625 C6.54792969 1.61148438 5.28335937 1.66046875 3.98046875 1.7109375 C2.32029053 1.7859738 0.66013536 1.86152127 -1 1.9375 C-1.83337891 1.9684375 -2.66675781 1.999375 -3.52539062 2.03125 C-4.32783203 2.06992188 -5.13027344 2.10859375 -5.95703125 2.1484375 C-6.69542236 2.1798584 -7.43381348 2.2112793 -8.19458008 2.24365234 C-10.50099588 2.47084614 -10.50099588 2.47084614 -13.1875 4.5625 C-12.375 2.625 -12.375 2.625 -11.1875 0.5625 C-7.35939179 -0.71353607 -3.95274893 -0.30033987 0 0 Z " fill="#797979" transform="translate(256.1875,183.4375)"/>
<path d="M0 0 C-4.455 2.97 -4.455 2.97 -9 6 C-9 2 -9 2 -8 0 C-4.71585695 -0.95067299 -3.30306592 -1.10102197 0 0 Z " fill="#B3B4B4" transform="translate(321,335)"/>
<path d="M0 0 C2.31 0 4.62 0 7 0 C7 1.65 7 3.3 7 5 C6.01 5.495 6.01 5.495 5 6 C5 4.68 5 3.36 5 2 C4.01 2 3.02 2 2 2 C1.67 3.32 1.34 4.64 1 6 C0 5 0 5 -0.0625 2.4375 C-0.041875 1.633125 -0.02125 0.82875 0 0 Z " fill="#2E2E2E" transform="translate(247,336)"/>
<path d="M0 0 C0 2.64 0 5.28 0 8 C-0.66 8 -1.32 8 -2 8 C-2 6.02 -2 4.04 -2 2 C-3.32 2 -4.64 2 -6 2 C-6 3.65 -6 5.3 -6 7 C-6.33 7 -6.66 7 -7 7 C-7 5.02 -7 3.04 -7 1 C-4 0 -4 0 0 0 Z " fill="#3E3E3E" transform="translate(140,246)"/>
<path d="M0 0 C4.29 0 8.58 0 13 0 C12.34 1.32 11.68 2.64 11 4 C11 3.34 11 2.68 11 2 C7.7 2 4.4 2 1 2 C0.67 1.34 0.34 0.68 0 0 Z " fill="#1B1B1C" transform="translate(301,326)"/>
<path d="M0 0 C0 3.54913582 -0.56122405 3.97588078 -2.875 6.5 C-4.81019815 8.63152259 -6.39002236 10.58503354 -8 13 C-8.36795695 9.7171341 -8.3231932 8.41336988 -6.25 5.76171875 C-5.13625 4.73498047 -5.13625 4.73498047 -4 3.6875 C-3.2575 2.99011719 -2.515 2.29273438 -1.75 1.57421875 C-1.1725 1.05472656 -0.595 0.53523437 0 0 Z " fill="#494949" transform="translate(164,158)"/>
<path d="M0 0 C0.88747193 3.54988771 1.10545467 6.14180778 1.0625 9.75 C1.05347656 10.73484375 1.04445312 11.7196875 1.03515625 12.734375 C1.02355469 13.48203125 1.01195312 14.2296875 1 15 C-0.65 14.01 -2.3 13.02 -4 12 C-3.67 11.34 -3.34 10.68 -3 10 C-2.67 10.33 -2.34 10.66 -2 11 C-1.34 7.37 -0.68 3.74 0 0 Z " fill="#EAEAEA" transform="translate(173,314)"/>
<path d="M0 0 C3.36591866 1.44253657 5.51047079 3.33264727 8 6 C6.02 6 4.04 6 2 6 C2 5.34 2 4.68 2 4 C1.01 3.67 0.02 3.34 -1 3 C-0.67 2.01 -0.34 1.02 0 0 Z " fill="#5B5B5B" transform="translate(303,170)"/>
<path d="M0 0 C0.66 0.33 1.32 0.66 2 1 C1.34 2.98 0.68 4.96 0 7 C-0.33 6.01 -0.66 5.02 -1 4 C-3.97 6.475 -3.97 6.475 -7 9 C-7.66 8.67 -8.32 8.34 -9 8 C-6.03 5.36 -3.06 2.72 0 0 Z " fill="#838383" transform="translate(174,149)"/>
<path d="M0 0 C5.57142857 5.14285714 5.57142857 5.14285714 6 9 C4.68 8.67 3.36 8.34 2 8 C1.34 5.36 0.68 2.72 0 0 Z " fill="#6E6E6E" transform="translate(325,190)"/>
<path d="M0 0 C0.33 0 0.66 0 1 0 C1 1.98 1 3.96 1 6 C-1.64 6 -4.28 6 -7 6 C-6.67 5.34 -6.34 4.68 -6 4 C-4.35 4 -2.7 4 -1 4 C-0.67 2.68 -0.34 1.36 0 0 Z " fill="#3E3E3E" transform="translate(253,134)"/>
<path d="M0 0 C2.64 0 5.28 0 8 0 C7.67 0.99 7.34 1.98 7 3 C5.02 3 3.04 3 1 3 C0.67 2.01 0.34 1.02 0 0 Z " fill="#2A2A2A" transform="translate(246,132)"/>
<path d="M0 0 C0.99 0.33 1.98 0.66 3 1 C2.67 3.31 2.34 5.62 2 8 C1.01 7.67 0.02 7.34 -1 7 C-0.67 4.69 -0.34 2.38 0 0 Z " fill="#A7A7A7" transform="translate(200,236)"/>
<path d="M0 0 C0.33 0.99 0.66 1.98 1 3 C1.66 3 2.32 3 3 3 C3 4.65 3 6.3 3 8 C1.02 6.35 -0.96 4.7 -3 3 C-2.01 2.67 -1.02 2.34 0 2 C0 1.34 0 0.68 0 0 Z " fill="#5C5C5C" transform="translate(325,165)"/>
<path d="M0 0 C2.29013653 3.4352048 2.17842973 4.985331 2 9 C1.01 8.67 0.02 8.34 -1 8 C-0.67 5.36 -0.34 2.72 0 0 Z " fill="#AFB0B2" transform="translate(315,319)"/>
<path d="M0 0 C0 3.51716303 -0.82445585 4.37121748 -3 7 C-3.99 6.01 -4.98 5.02 -6 4 C-4.02 2.68 -2.04 1.36 0 0 Z " fill="#ABABAB" transform="translate(193,155)"/>
<path d="M0 0 C0.99 0.33 1.98 0.66 3 1 C3 1.66 3 2.32 3 3 C1.1875 4.6875 1.1875 4.6875 -1 6 C-1.99 5.67 -2.98 5.34 -4 5 C-2.68 3.35 -1.36 1.7 0 0 Z " fill="#595959" transform="translate(288,341)"/>
<path d="M0 0 C0.66 0 1.32 0 2 0 C2.33 0.66 2.66 1.32 3 2 C5.02463255 2.65213292 5.02463255 2.65213292 7 3 C6.67 4.65 6.34 6.3 6 8 C1.125 3.375 1.125 3.375 0 0 Z " fill="#7A7A7A" transform="translate(148,323)"/>
<path d="M0 0 C0.99 0 1.98 0 3 0 C3 1.98 3 3.96 3 6 C2.01 6 1.02 6 0 6 C0 4.02 0 2.04 0 0 Z " fill="#1C1C1C" transform="translate(372,246)"/>
<path d="M0 0 C0.66 0.99 1.32 1.98 2 3 C4.19454681 3.57993699 4.19454681 3.57993699 6.625 3.6875 C7.44226563 3.75324219 8.25953125 3.81898438 9.1015625 3.88671875 C9.72804687 3.92410156 10.35453125 3.96148437 11 4 C11 4.33 11 4.66 11 5 C7.04 5 3.08 5 -1 5 C-0.67 3.35 -0.34 1.7 0 0 Z " fill="#272727" transform="translate(187,169)"/>
<path d="M0 0 C0.33 0 0.66 0 1 0 C1 2.64 1 5.28 1 8 C-0.32 6.68 -1.64 5.36 -3 4 C-2 2 -2 2 0 0 Z " fill="#6E6E6E" transform="translate(173,301)"/>
<path d="M0 0 C0.99 0.33 1.98 0.66 3 1 C3 2.98 3 4.96 3 7 C2.67 6.34 2.34 5.68 2 5 C1.34 5 0.68 5 0 5 C-0.33 4.01 -0.66 3.02 -1 2 C-0.67 1.34 -0.34 0.68 0 0 Z " fill="#C7C7C9" transform="translate(210,245)"/>
</svg>
